<?xml version="1.0" encoding="UTF-8"?>
<svg id="Layer_1" data-name="Layer 1" xmlns="http://www.w3.org/2000/svg" xmlns:xlink="http://www.w3.org/1999/xlink" viewBox="0 0 1920 1920">
  <defs>
    <style>
      .cls-1 {
        fill: #fff;
      }

      .cls-2 {
        fill: none;
      }

      .cls-3 {
        fill: #5fdff3;
      }

      .cls-4 {
        clip-path: url(#clippath-1);
      }

      .cls-5 {
        fill: #6539c3;
      }

      .cls-6 {
        clip-path: url(#clippath);
      }
    </style>
    <clipPath id="clippath">
      <rect class="cls-2" x="210" y="2739.39" width="1500" height="1500" rx="300.52" ry="300.52"/>
    </clipPath>
    <clipPath id="clippath-1">
      <rect class="cls-2" x="210" y="210" width="1500" height="1500" rx="300.52" ry="300.52"/>
    </clipPath>
  </defs>
  <g class="cls-6">
    <path class="cls-3" d="M-143.96,3944.87c26.41-59.49,34.7-100.78,24.79-123.94-9.92-23.09-21.53-34.7-34.71-34.7s-37.18-2.48-71.89-7.44c-34.7-4.96-65.29-18.98-91.71-42.14-43-39.66-54.54-80.95-34.71-123.94,19.83-42.91,57.79-72.66,114.03-89.24,13.17-3.25,37.18-8.21,71.88-14.87,34.71-6.59,65.23-14.88,91.72-24.79,26.42-9.92,47.87-21.46,64.45-34.7,23.08-23.09,47.88-76,74.37-158.65,0-6.59,3.25-16.5,9.91-29.75,16.51-62.75,28.9-109.07,37.18-138.82,8.22-29.75,16.51-71.03,24.8-123.94,8.21-52.83,9.06-94.2,2.48-123.94-6.67-29.75-18.21-62.74-34.71-99.15-16.58-36.33-44.62-66.93-84.28-91.72-39.66-24.79-87.61-45.39-143.77-61.97-161.98-46.25-375.17-39.66-639.55,19.83-52.92,13.24-100.01,2.48-141.31-32.23-41.37-34.7-56.23-76.84-44.62-126.42,11.54-49.58,55.31-89.24,131.39-118.99,23.08-9.92,48.73-19.83,76.85-29.75,28.04-9.92,59.49-20.61,94.19-32.22,34.71-11.54,60.27-20.61,76.85-27.27,555.27-201.56,865.91-313.96,932.06-337.13,26.42-9.92,47.09-18.13,61.97-24.79,14.88-6.58,28.04-11.54,39.66-14.87,11.54-3.25,20.61-10.69,27.26-22.31,6.59-11.54,11.54-19.83,14.88-24.79,3.25-4.96,9.06-18.98,17.35-42.14,8.21-23.09,15.65-41.29,22.31-54.54,23.08-52.83,56.16-83.43,99.16-91.72,42.91-8.21,85.91,9.14,128.9,52.06,36.34,36.41,69.41,57.02,99.16,61.97,29.75,4.96,71.03-.78,123.95-17.35,99.16-26.41,196.6-48.73,292.5-66.93,95.83-18.13,209.85-35.48,342.08-52.06,132.16-16.5,252.85-18.98,361.91-7.44,109.08,11.62,215.66,33.08,319.78,64.45,104.12,31.45,190.88,85.99,260.29,163.61,69.4,77.7,115.65,176,138.81,294.99,29.75,158.65,1.63,307.38-84.28,446.2-85.98,138.82-203.27,261.13-351.99,366.87-221.48,155.39-533.82,300.8-937.02,436.28-39.66,13.24-96.68,30.6-171.05,52.06-74.37,21.53-126.42,35.56-156.17,42.14-92.57,29.75-102.48,57.86-29.74,84.28,3.25,0,31.37,8.29,84.28,24.79,413.12,118.99,773.41,352,1080.79,699.04,23.08,26.5,33,58.72,29.75,96.68-3.33,38.03-19.06,69.41-47.11,94.2-28.12,24.79-61.2,36.41-99.16,34.7-38.03-1.63-68.63-17.35-91.71-47.1-376.79-413.12-875.9-659.38-1497.24-738.71-43-6.58-77.7-10.69-104.11-12.39-26.5-1.63-51.29,1.7-74.37,9.92-23.17,8.29-39.66,14.1-49.58,17.35-9.91,3.33-20.68,16.58-32.22,39.66-11.62,23.16-19.06,40.51-22.31,52.06-3.33,11.62-10.77,38.89-22.31,81.8-11.62,42.99-20.69,76.07-27.28,99.16-26.49,95.9-71.88,242.93-136.34,441.24-64.45,198.31-111.54,350.37-141.3,456.11-49.57,168.56-123.94,237.97-223.1,208.23-23.15-6.58-41.37-16.5-54.54-29.75-13.24-13.17-20.68-31.37-22.31-54.54-1.7-23.08-3.32-43.77-4.95-61.97-1.7-18.13,1.63-42.92,9.92-74.37,8.21-31.37,14.02-53.68,17.34-66.93,3.26-13.17,10.7-35.48,22.32-66.93,11.54-31.37,18.97-48.73,22.31-52.06,75.99-228.06,161.9-490.82,257.8-788.28ZM94,2393.1c115.66,69.41,190.02,89.24,223.11,59.49,16.5-16.5,34.7-57.01,54.53-121.46,19.83-64.45,18.13-99.93-4.95-106.59-23.17-6.58-120.69,21.54-292.51,84.28-19.82,9.92-32.22,18.21-37.17,24.79-4.97,6.66-4.97,13.25,0,19.83,4.95,6.66,11.54,12.4,19.83,17.35,8.21,4.96,20.61,12.39,37.17,22.31ZM386.51,3149.16c-46.32,150.44-68.63,228.05-66.93,233.01,1.62,4.96,8.21,8.29,19.83,9.92,11.54,1.7,25.56.85,42.14-2.48,16.5-3.25,32.22-7.44,47.09-12.4,14.88-4.96,29.75-9.92,44.62-14.87,14.88-4.96,23.94-7.44,27.28-7.44,436.28-115.65,718.87-196.61,847.77-242.93,776.66-267.72,1141.91-563.48,1095.67-887.44-49.57-350.3-553.64-409.79-1512.12-178.48-13.24,3.33-23.15,4.96-29.74,4.96-36.41,9.92-67.78,20.68-94.2,32.22-26.49,11.62-47.09,20.68-61.97,27.27-14.88,6.66-28.12,20.68-39.66,42.14-11.61,21.53-19.06,37.18-22.31,47.1-3.33,9.92-9.91,33.93-19.83,71.89-9.91,38.04-18.2,66.93-24.79,86.76-3.33,6.66-34.71,102.49-94.2,287.55-59.49,185.14-112.4,352.85-158.65,503.21Z"/>
  </g>
  <g class="cls-4">
    <rect class="cls-5" x="210" y="210" width="1500" height="1500"/>
    <path class="cls-3" d="M-143.96,1415.48c26.41-59.49,34.7-100.78,24.79-123.94-9.92-23.09-21.53-34.7-34.71-34.7s-37.18-2.48-71.89-7.44c-34.7-4.96-65.29-18.98-91.71-42.14-43-39.66-54.54-80.95-34.71-123.94,19.83-42.91,57.79-72.66,114.03-89.24,13.17-3.25,37.18-8.21,71.88-14.87,34.71-6.59,65.23-14.88,91.72-24.79,26.42-9.92,47.87-21.46,64.45-34.7,23.08-23.09,47.88-76,74.37-158.65,0-6.59,3.25-16.5,9.91-29.75,16.51-62.75,28.9-109.07,37.18-138.82,8.22-29.75,16.51-71.03,24.8-123.94,8.21-52.83,9.06-94.2,2.48-123.94-6.67-29.75-18.21-62.74-34.71-99.15-16.58-36.33-44.62-66.93-84.28-91.72-39.66-24.79-87.61-45.39-143.77-61.97-161.98-46.25-375.17-39.66-639.55,19.83-52.92,13.24-100.01,2.48-141.31-32.23-41.37-34.7-56.23-76.84-44.62-126.42,11.54-49.58,55.31-89.24,131.39-118.99,23.08-9.92,48.73-19.83,76.85-29.75,28.04-9.92,59.49-20.61,94.19-32.22,34.71-11.54,60.27-20.61,76.85-27.27C-15.07-456.84,295.57-569.24,361.72-592.41c26.42-9.92,47.09-18.13,61.97-24.79,14.88-6.58,28.04-11.54,39.66-14.87,11.54-3.25,20.61-10.69,27.26-22.31,6.59-11.54,11.54-19.83,14.88-24.79,3.25-4.96,9.06-18.98,17.35-42.14,8.21-23.09,15.65-41.29,22.31-54.54,23.08-52.83,56.16-83.43,99.16-91.72,42.91-8.21,85.91,9.14,128.9,52.06,36.34,36.41,69.41,57.02,99.16,61.97,29.75,4.96,71.03-.78,123.95-17.35,99.16-26.41,196.6-48.73,292.5-66.93,95.83-18.13,209.85-35.48,342.08-52.06,132.16-16.5,252.85-18.98,361.91-7.44,109.08,11.62,215.66,33.08,319.78,64.45,104.12,31.45,190.88,85.99,260.29,163.61,69.4,77.7,115.65,176,138.81,294.99,29.75,158.65,1.63,307.38-84.28,446.2-85.98,138.82-203.27,261.13-351.99,366.87-221.48,155.39-533.82,300.8-937.02,436.28-39.66,13.24-96.68,30.6-171.05,52.06-74.37,21.53-126.42,35.56-156.17,42.14-92.57,29.75-102.48,57.86-29.74,84.28,3.25,0,31.37,8.29,84.28,24.79,413.12,118.99,773.41,352,1080.79,699.04,23.08,26.5,33,58.72,29.75,96.68-3.33,38.03-19.06,69.41-47.11,94.2-28.12,24.79-61.2,36.41-99.16,34.7-38.03-1.63-68.63-17.35-91.71-47.1-376.79-413.12-875.9-659.38-1497.24-738.71-43-6.58-77.7-10.69-104.11-12.39-26.5-1.63-51.29,1.7-74.37,9.92-23.17,8.29-39.66,14.1-49.58,17.35-9.91,3.33-20.68,16.58-32.22,39.66-11.62,23.16-19.06,40.51-22.31,52.06-3.33,11.62-10.77,38.89-22.31,81.8-11.62,42.99-20.69,76.07-27.28,99.16-26.49,95.9-71.88,242.93-136.34,441.24-64.45,198.31-111.54,350.37-141.3,456.11-49.57,168.56-123.94,237.97-223.1,208.23-23.15-6.58-41.37-16.5-54.54-29.75-13.24-13.17-20.68-31.37-22.31-54.54-1.7-23.08-3.32-43.77-4.95-61.97-1.7-18.13,1.63-42.92,9.92-74.37,8.21-31.37,14.02-53.68,17.34-66.93,3.26-13.17,10.7-35.48,22.32-66.93,11.54-31.37,18.97-48.73,22.31-52.06,75.99-228.06,161.9-490.82,257.8-788.28ZM94-136.29c115.66,69.41,190.02,89.24,223.11,59.49,16.5-16.5,34.7-57.01,54.53-121.46,19.83-64.45,18.13-99.93-4.95-106.59-23.17-6.58-120.69,21.54-292.51,84.28-19.82,9.92-32.22,18.21-37.17,24.79-4.97,6.66-4.97,13.25,0,19.83,4.95,6.66,11.54,12.4,19.83,17.35,8.21,4.96,20.61,12.39,37.17,22.31ZM386.51,619.76c-46.32,150.44-68.63,228.05-66.93,233.01,1.62,4.96,8.21,8.29,19.83,9.92,11.54,1.7,25.56.85,42.14-2.48,16.5-3.25,32.22-7.44,47.09-12.4,14.88-4.96,29.75-9.92,44.62-14.87,14.88-4.96,23.94-7.44,27.28-7.44,436.28-115.65,718.87-196.61,847.77-242.93C2124.98,314.86,2490.23,19.1,2443.98-304.86c-49.57-350.3-553.64-409.79-1512.12-178.48-13.24,3.33-23.15,4.96-29.74,4.96-36.41,9.92-67.78,20.68-94.2,32.22-26.49,11.62-47.09,20.68-61.97,27.27-14.88,6.66-28.12,20.68-39.66,42.14-11.61,21.53-19.06,37.18-22.31,47.1-3.33,9.92-9.91,33.93-19.83,71.89-9.91,38.04-18.2,66.93-24.79,86.76-3.33,6.66-34.71,102.49-94.2,287.55-59.49,185.14-112.4,352.85-158.65,503.21Z"/>
  </g>
  <g>
    <g>
      <path class="cls-1" d="M489.59,1006.98h56.09l30.44,105.68,28.04-105.68h48.56l29.75,105.68,34.2-105.68h56.09l-54.38,173.39h-55.4l-34.2-95.42-33.86,95.42h-54.04l-51.3-173.39Z"/>
      <path class="cls-1" d="M808.84,1171.82c-12.65-7.98-22.52-18.75-29.58-32.32-7.07-13.56-10.6-28.56-10.6-44.97,0-18.69,3.47-34.88,10.43-48.56,6.95-13.68,16.47-24.16,28.56-31.46,12.08-7.29,25.76-10.94,41.04-10.94s28.5,3.82,41.04,11.46c12.54,7.64,20.63,18.3,24.28,31.98v-40.01h56.09v173.39h-55.75v-40.36c-3.65,13-11.52,23.54-23.6,31.63-12.09,8.1-25.08,12.14-38.99,12.14-15.96,0-30.27-3.99-42.92-11.97ZM836.88,1125.48c8.32,8.1,18.52,12.14,30.61,12.14s22.74-4.04,31.29-12.14c8.55-8.09,12.83-18.52,12.83-31.29,0-13.68-4.22-24.62-12.65-32.83-8.44-8.21-18.93-12.31-31.46-12.31s-22.86,4.1-30.95,12.31c-8.1,8.21-12.14,19.15-12.14,32.83,0,12.77,4.16,23.2,12.48,31.29Z"/>
      <path class="cls-1" d="M1027.2,1176.1c-12.31-5.13-22.23-12.59-29.75-22.4-7.52-9.8-11.29-21.2-11.29-34.2h50.96c.68,7.52,3.64,13.4,8.89,17.61,5.24,4.22,11.74,6.33,19.49,6.33,6.16,0,11.17-1.37,15.05-4.1,3.87-2.74,5.81-6.5,5.81-11.29s-1.88-8.6-5.64-11.46c-3.76-2.85-9.86-4.84-18.3-5.99-25.31-2.96-44.35-8.21-57.11-15.73-12.77-7.52-19.15-19.95-19.15-37.28,0-10.71,3.08-20.18,9.23-28.39,6.16-8.21,14.76-14.53,25.82-18.98,11.06-4.45,23.65-6.67,37.79-6.67,22.8,0,41.66,5.59,56.6,16.76,14.93,11.17,22.62,27.02,23.08,47.54h-50.96c-.46-7.06-3.2-12.83-8.21-17.27-5.02-4.45-11.4-6.67-19.15-6.67-5.93,0-10.72,1.54-14.36,4.62-3.65,3.08-5.47,7.01-5.47,11.8s2.05,8.78,6.16,11.97c4.1,3.2,10.83,5.59,20.18,7.18,18.69,3.42,33,6.79,42.92,10.09,9.92,3.31,17.38,8.21,22.4,14.71,5.01,6.5,7.52,15.56,7.52,27.19,0,16.88-6.67,29.81-20.01,38.82-13.34,9.01-30.73,13.51-52.15,13.51-14.59,0-28.04-2.56-40.36-7.7Z"/>
      <path class="cls-1" d="M1156.48,954.66h56.09v92.34c3.64-13.68,11.74-24.33,24.28-31.98,12.54-7.64,26.1-11.46,40.7-11.46s29.01,3.65,41.21,10.94c12.19,7.3,21.77,17.84,28.73,31.63,6.95,13.8,10.43,29.92,10.43,48.39v85.84h-56.09v-86.18c0-13.68-4.05-24.62-12.14-32.83-8.1-8.21-18.3-12.31-30.61-12.31s-23.37,4.05-31.81,12.14c-8.44,8.1-12.65,19.1-12.65,33v86.18h-58.14v-225.72Z"/>
      <path class="cls-1" d="M1382.36,1171.65c-5.59-5.58-8.38-12.25-8.38-20.01s2.79-14.36,8.38-19.84c5.58-5.47,12.25-8.21,20.01-8.21s14.08,2.74,19.67,8.21c5.58,5.47,8.38,12.09,8.38,19.84s-2.79,14.42-8.38,20.01c-5.59,5.59-12.14,8.38-19.67,8.38s-14.42-2.79-20.01-8.38Z"/>
    </g>
    <g>
      <path class="cls-1" d="M493.03,736.21h94.39c33.29,0,56.82,7.18,70.62,21.55,13.79,14.36,20.69,32.04,20.69,53.01,0,40.36-16.65,64.18-49.93,71.48l-7.18.34,46.85,79.34h-62.24l-45.48-79.34h-11.97v79.34h-55.75v-225.72ZM587.42,836.75c11.63,0,20.4-2.05,26.33-6.16,5.93-4.1,8.89-10.71,8.89-19.84,0-17.55-11.86-26.33-35.57-26.33h-38.3v52.33h38.64Z"/>
      <path class="cls-1" d="M733.63,954.4c-14.48-7.29-26.11-17.73-34.88-31.29-8.78-13.56-13.17-29.35-13.17-47.37,0-19.38,4.39-35.91,13.17-49.59,8.77-13.68,20.35-23.94,34.71-30.78,14.36-6.84,29.87-10.26,46.51-10.26s30.83,3.25,43.95,9.75c13.11,6.5,23.82,15.85,32.15,28.04,8.32,12.2,13.39,26.62,15.22,43.26.45,4.1.68,7.52.68,10.26,0,2.51-.23,6.04-.68,10.6h-133.04c1.82,10.04,6.84,18.01,15.05,23.94,8.21,5.93,17.55,8.89,28.04,8.89,7.98,0,15.33-1.59,22.06-4.79,6.72-3.19,11.8-7.75,15.22-13.68l41.04,20.86c-7.98,13.46-18.98,24-33,31.63-14.02,7.64-29.58,11.46-46.68,11.46s-31.86-3.64-46.34-10.94ZM818.61,856.59c-2.28-7.98-7.07-14.48-14.36-19.49-7.3-5.01-15.39-7.52-24.28-7.52s-16.47,2.51-23.43,7.52c-6.96,5.02-11.57,11.52-13.85,19.49h75.92Z"/>
    </g>
    <g>
      <path class="cls-1" d="M1103.16,875.46h-7.93c-4.35,0-8.31-.94-11.89-2.81-3.58-1.87-5.5-4.65-5.75-8.31v-36.96h-17.9v33.38c0,4.43-1.21,7.99-3.64,10.68s-5.35,4.03-8.76,4.03h-8.06v-48.08h-17.9v70.97h-14.96c-12.53,0-18.8-5.75-18.8-17.26v-22.12h-17.9v24.94c0,8.52,2.51,15.6,7.54,21.23,5.03,5.63,12.96,8.44,23.79,8.44h38.24v-22.76h13.43c7.67,0,13.85-2.81,18.54-8.44,4.77,5.63,11.72,8.44,20.84,8.44h29.03v-68.8h-17.9v53.45Z"/>
      <rect class="cls-1" x="1072.21" y="800.39" width="18.42" height="16.11"/>
      <rect class="cls-1" x="1046.64" y="800.39" width="18.42" height="16.11"/>
      <rect class="cls-1" x="1060.19" y="780.57" width="16.62" height="14.58"/>
      <rect class="cls-1" x="1140.24" y="792.85" width="17.9" height="97.96"/>
      <rect class="cls-1" x="1366.08" y="902.06" width="18.41" height="16.11"/>
      <rect class="cls-1" x="1340.51" y="902.06" width="18.41" height="16.11"/>
      <path class="cls-1" d="M1341.91,890.8h39.51v-63.43h-17.78v48.08h-129.29v-46.8c-11.08-1.7-19.57-2.56-25.45-2.56-6.91,0-12.98,1.41-18.22,4.22s-9.32,6.71-12.21,11.7c-2.9,4.99-4.35,10.55-4.35,16.69s1.34,12.02,4.03,16.88,6.39,8.61,11.13,11.25c4.73,2.64,10.04,3.96,15.92,3.96h1.79l6.91-15.35h-5.63c-5.03,0-8.89-1.47-11.57-4.41-2.69-2.94-4.03-6.97-4.03-12.08,0-11.68,5.2-17.52,15.6-17.52,2.47,0,5.2.3,8.18.9v44.12c0,4.18-.81,7.48-2.43,9.91-1.62,2.43-3.99,4.26-7.1,5.5-3.11,1.24-7.31,2.19-12.6,2.88l7.16,15.99c9.97-1.62,17.71-4.6,23.21-8.95s8.63-11.34,9.4-20.97h107.8Z"/>
      <path class="cls-1" d="M1404.19,827.37v60.1c0,4.18-.6,7.44-1.79,9.78-1.2,2.34-2.99,4.03-5.37,5.05-2.39,1.02-5.67,1.83-9.85,2.43l7.16,15.99c8.18-.94,14.85-4.03,20.01-9.27,5.16-5.24,7.74-13.41,7.74-24.49v-59.59h-17.9Z"/>
    </g>
  </g>
</svg>